HIERARCHY
ROOT Hips
{
	OFFSET 0.000000 0.000000 0.000000
	CHANNELS 6 Xposition Yposition Zposition Zrotation Yrotation Xrotation 
	JOINT LeftUpLeg_virtual
	{
		OFFSET 0.000000 0.000000 0.000000
		CHANNELS 3 Zrotation Yrotation Xrotation
		JOINT LeftUpLeg
		{
			OFFSET 8.479694 -4.795517 -0.379053
			CHANNELS 3 Zrotation Yrotation Xrotation
			JOINT LeftLeg
			{
				OFFSET 0.485052 -32.551468 0.112863
				CHANNELS 3 Zrotation Yrotation Xrotation
				JOINT LeftFoot
				{
					OFFSET 0.438033 -32.635670 -3.012641
					CHANNELS 3 Zrotation Yrotation Xrotation
					JOINT LeftToeBase
					{
						OFFSET 0.970169 -13.225353 11.864223
						CHANNELS 3 Zrotation Yrotation Xrotation
						End Site
						{
							OFFSET 0.000000 0.000000 0.000000
						}
					}
				}
			}
		}
	}
	JOINT RightUpLeg_virtual
	{
		OFFSET 0.000000 0.000000 0.000000
		CHANNELS 3 Zrotation Yrotation Xrotation
		JOINT RightUpLeg
		{
			OFFSET -8.479694 -4.795517 -0.379053
			CHANNELS 3 Zrotation Yrotation Xrotation
			JOINT RightLeg
			{
				OFFSET -0.484100 -32.551483 0.112903
				CHANNELS 3 Zrotation Yrotation Xrotation
				JOINT RightFoot
				{
					OFFSET -0.438985 -32.635651 -3.012681
					CHANNELS 3 Zrotation Yrotation Xrotation
					JOINT RightToeBase
					{
						OFFSET -0.970169 -13.225354 11.864223
						CHANNELS 3 Zrotation Yrotation Xrotation
						End Site
						{
							OFFSET 0.000000 0.000000 0.000000
						}
					}
				}
			}
		}
	}
	JOINT Spine_virtual
	{
		OFFSET 0.000000 0.000000 0.000000
		CHANNELS 3 Zrotation Yrotation Xrotation
		JOINT Spine
		{
			OFFSET 0.000000 7.722015 1.166203
			CHANNELS 3 Zrotation Yrotation Xrotation
			JOINT Spine1
			{
				OFFSET 0.000000 12.024086 0.248766
				CHANNELS 3 Zrotation Yrotation Xrotation
				JOINT Spine2
				{
					OFFSET -0.000000 11.503036 -0.491240
					CHANNELS 3 Zrotation Yrotation Xrotation
					JOINT Neck_virtual
					{
						OFFSET 0.000000 0.000000 0.000000
						CHANNELS 3 Zrotation Yrotation Xrotation
						JOINT Neck
						{
							OFFSET 0.000000 18.430687 -3.123054
							CHANNELS 3 Zrotation Yrotation Xrotation
							JOINT Head
							{
								OFFSET -0.000000 9.051071 1.034021
								CHANNELS 3 Zrotation Yrotation Xrotation
								End Site
								{
									OFFSET 0.000000 0.000000 0.000000
								}
							}
						}
					}
					JOINT LeftShoulder_virtual
					{
						OFFSET 0.000000 0.000000 0.000000
						CHANNELS 3 Zrotation Yrotation Xrotation
						JOINT LeftShoulder
						{
							OFFSET 6.197824 13.665230 -4.064723
							CHANNELS 3 Zrotation Yrotation Xrotation
							JOINT LeftArm
							{
								OFFSET 7.778132 -0.187073 -1.709282
								CHANNELS 3 Zrotation Yrotation Xrotation
								JOINT LeftForeArm
								{
									OFFSET 21.954697 0.000000 -2.041093
									CHANNELS 3 Zrotation Yrotation Xrotation
									JOINT LeftHand
									{
										OFFSET 22.992908 0.000000 -0.870901
										CHANNELS 3 Zrotation Yrotation Xrotation
										End Site
										{
											OFFSET 0.000000 0.000000 0.000000
										}
									}
								}
							}
						}
					}
					JOINT RightShoulder_virtual
					{
						OFFSET 0.000000 0.000000 0.000000
						CHANNELS 3 Zrotation Yrotation Xrotation
						JOINT RightShoulder
						{
							OFFSET -6.197824 13.665230 -4.064723
							CHANNELS 3 Zrotation Yrotation Xrotation
							JOINT RightArm
							{
								OFFSET -7.778132 -0.187073 -1.709282
								CHANNELS 3 Zrotation Yrotation Xrotation
								JOINT RightForeArm
								{
									OFFSET -21.954697 0.000000 -2.041093
									CHANNELS 3 Zrotation Yrotation Xrotation
									JOINT RightHand
									{
										OFFSET -22.992908 0.000000 -0.870901
										CHANNELS 3 Zrotation Yrotation Xrotation
										End Site
										{
											OFFSET 0.000000 0.000000 0.000000
										}
									}
								}
							}
						}
					}
				}
			}
		}
	}
}
MOTION
Frames: 7
Frame Time: 0.033333
6.635384 78.461235 22.758301 -162.982493 -88.263700 162.949080 -4.706311 -2.519201 15.202843 5.345506 10.305412 -48.335579 4.803409 3.450006 57.302678 -7.081998 -7.292832 -5.929808 0.000000 0.000000 0.000000 -0.544195 -4.266416 13.395743 3.264089 8.604845 -37.133908 -0.279174 8.387751 31.287908 5.760938 -0.025630 -17.393032 0.000000 0.000000 0.000000 -0.496653 -2.811243 10.294694 1.565185 3.912469 1.819042 3.481204 -1.998292 5.925865 -0.063229 -0.054619 0.011913 3.346573 -0.945616 6.959901 11.932942 2.789551 -18.721009 0.000000 0.000000 0.000000 4.375014 -0.101887 4.344467 -4.427753 -13.015688 -0.763969 -78.523659 -11.266832 0.571251 2.312656 -7.098239 10.996232 0.000000 0.000000 0.000000 0.024035 1.768466 2.902789 24.241458 4.328876 1.665119 70.971526 35.912988 37.358300 -162.036785 66.967307 -161.629938 0.000000 0.000000 0.000000 
7.583162 78.597557 23.205471 -145.361493 -88.991279 145.366902 -4.978547 -2.254387 15.991554 5.194040 9.416959 -50.300583 4.894592 4.053474 52.050932 -6.927896 -6.850851 -6.759235 0.000000 0.000000 0.000000 -0.545848 -4.254842 14.270200 3.037993 7.974003 -38.222405 -0.390727 8.550834 29.886053 5.614525 -0.013564 -15.717949 0.000000 0.000000 0.000000 -0.485343 -2.700992 12.087983 1.511584 3.910072 2.716129 3.461626 -2.063838 5.621555 -0.064229 -0.054580 -0.010926 3.379000 -1.140882 6.636233 11.868132 2.739397 -20.001956 0.000000 0.000000 0.000000 4.381666 -0.252448 4.086172 -4.130810 -13.923177 -0.692581 -78.116580 -13.133492 0.819757 2.414953 -6.711597 10.930088 0.000000 0.000000 0.000000 0.162118 1.654854 2.608633 23.828162 5.128363 1.923338 70.221243 35.944454 37.581162 -161.812591 67.544615 -161.350856 0.000000 0.000000 0.000000 
8.401905 78.733795 23.567205 -107.389507 -89.406527 107.453055 -5.197999 -2.106072 16.651972 5.122275 8.596328 -51.732631 4.942729 4.832936 46.072095 -6.878389 -6.550164 -7.556809 0.000000 0.000000 0.000000 -0.623021 -4.253049 15.266299 2.834257 7.367881 -39.420307 -0.476818 8.585360 28.508402 5.497503 -0.002803 -14.111879 0.000000 0.000000 0.000000 -0.722140 -2.751938 13.722651 1.461762 3.751858 3.481621 3.643951 -2.014489 5.323373 -0.073779 0.050321 0.038534 3.440135 -1.217645 6.289480 12.025027 2.737593 -20.902351 0.000000 0.000000 0.000000 4.381905 -0.273083 3.626171 -4.015807 -14.387725 -0.623625 -77.784913 -14.765424 1.288024 2.439860 -6.606925 10.841278 0.000000 0.000000 0.000000 0.109028 1.602334 2.325116 23.494046 6.090495 1.974016 69.627495 36.072148 37.860066 -161.521311 68.153492 -160.777927 0.000000 0.000000 0.000000 
9.046075 78.835045 23.774942 -45.386320 -89.325945 45.485682 -5.685114 -1.945754 17.180146 5.143991 8.074797 -52.855586 4.773148 5.459318 40.317360 -7.098751 -6.660485 -8.133617 0.000000 0.000000 0.000000 -0.758914 -4.209766 16.096072 2.640852 6.810961 -40.457550 -0.530112 8.482263 27.640423 5.312369 -0.077621 -12.863058 0.000000 0.000000 0.000000 -0.821424 -2.507608 15.077122 1.422732 3.853760 4.143156 3.747455 -2.191634 5.048259 -0.059142 -0.077649 0.042567 3.640726 -1.209578 5.942480 12.381154 2.821648 -21.668591 0.000000 0.000000 0.000000 4.497956 -0.342186 3.349188 -3.941718 -14.949681 -0.550570 -77.421950 -16.158722 2.158541 2.265719 -7.018879 10.699292 0.000000 0.000000 0.000000 0.203689 1.512007 1.935283 23.250270 7.001454 2.142277 69.044347 36.267540 38.197819 -161.558180 68.676302 -160.635654 0.000000 0.000000 0.000000 
9.492672 78.873840 23.853241 -19.285254 -89.007911 19.301983 -6.174302 -1.707889 17.705870 5.116455 7.827239 -53.627534 4.458534 6.070177 36.124785 -7.512207 -7.167471 -8.245103 0.000000 0.000000 0.000000 -0.928234 -4.083067 16.714002 2.476383 6.427035 -41.263242 -0.544925 8.385200 27.500893 5.170659 -0.178328 -12.726204 0.000000 0.000000 0.000000 -0.990552 -2.433302 16.191045 1.358416 3.888569 4.762979 3.806082 -2.214260 4.803487 0.006532 -0.092771 0.009052 3.758617 -1.268410 5.780383 12.822649 2.668998 -22.029204 0.000000 0.000000 0.000000 4.577416 -0.453192 3.006685 -3.941927 -15.270911 -0.424523 -76.983383 -17.111820 3.529872 2.045757 -7.999070 10.618928 0.000000 0.000000 0.000000 0.384669 1.446289 1.619831 23.125057 8.032136 2.280144 68.655573 36.406493 39.074228 -161.936040 69.024041 -160.799770 0.000000 0.000000 0.000000 
9.737103 78.835922 23.833412 3.314990 -89.236387 -3.581529 -6.615641 -1.362532 18.306399 4.994773 7.783281 -54.136882 4.170152 6.623666 34.218889 -7.968125 -7.893918 -7.952695 0.000000 0.000000 0.000000 -1.165584 -3.979121 17.229992 2.324045 6.285412 -41.795580 -0.433563 8.438978 27.655991 5.239510 -0.074031 -12.998702 0.000000 0.000000 0.000000 -1.390522 -2.183767 17.116405 1.173547 3.921696 5.325405 3.905145 -2.224036 4.705935 0.002627 -0.085134 -0.005450 4.046659 -1.298263 5.544080 13.317120 2.622233 -22.111096 0.000000 0.000000 0.000000 4.779344 -0.351392 2.616617 -3.918629 -15.560134 -0.293774 -76.277128 -17.772270 5.450756 1.720492 -9.359106 10.383382 0.000000 0.000000 0.000000 0.550107 1.491148 1.225480 23.073381 8.998200 2.648545 68.481444 36.768322 40.242938 -162.641462 69.338270 -161.335284 0.000000 0.000000 0.000000 
9.789591 78.733627 23.758520 39.759101 -89.479228 -40.239038 -6.969420 -1.140212 18.739150 4.855654 7.888176 -54.608438 3.940500 6.752961 33.928855 -8.191974 -8.638148 -7.636790 0.000000 0.000000 0.000000 -1.287500 -4.156982 17.617013 2.119062 6.361713 -42.195597 -0.233342 8.449332 27.960558 5.404668 0.064061 -13.454776 0.000000 0.000000 0.000000 -1.728257 -2.024898 17.766481 1.016739 4.059743 5.775869 4.009153 -2.143579 4.481203 0.041650 -0.063127 0.020750 4.247585 -1.173868 5.382450 13.794038 2.603892 -22.195992 0.000000 0.000000 0.000000 4.842358 -0.329665 2.322594 -3.829094 -15.826875 -0.236706 -75.213346 -18.194405 7.784884 1.307607 -10.896889 10.280569 0.000000 0.000000 0.000000 0.619050 1.444876 0.887695 23.091719 9.928815 2.950575 68.581199 37.094774 42.000199 -163.547500 69.455231 -162.046265 0.000000 0.000000 0.000000 
